<mxfile host="Electron" agent="Mozilla/5.0 (Windows NT 10.0; Win64; x64) AppleWebKit/537.36 (KHTML, like Gecko) draw.io/28.0.6 Chrome/138.0.7204.100 Electron/37.2.3 Safari/537.36" version="28.0.6">
  <diagram name="Strona-1" id="E4aNsbRmBAb1Rbgrghqg">
    <mxGraphModel dx="1826" dy="841" grid="1" gridSize="10" guides="1" tooltips="1" connect="1" arrows="1" fold="1" page="0" pageScale="1" pageWidth="827" pageHeight="1169" math="0" shadow="0">
      <root>
        <mxCell id="0" />
        <mxCell id="1" parent="0" />
        <mxCell id="Kuadu71gK96YD9XO7ef2-1" value="" style="rounded=0;whiteSpace=wrap;html=1;fillColor=none;" parent="1" vertex="1">
          <mxGeometry x="-179.5" y="168" width="160" height="380" as="geometry" />
        </mxCell>
        <mxCell id="Kuadu71gK96YD9XO7ef2-3" value="&lt;font style=&quot;font-size: 24px;&quot;&gt;Sources&lt;/font&gt;" style="rounded=1;whiteSpace=wrap;html=1;" parent="1" vertex="1">
          <mxGeometry x="-165" y="150" width="130" height="30" as="geometry" />
        </mxCell>
        <mxCell id="Kuadu71gK96YD9XO7ef2-19" style="edgeStyle=orthogonalEdgeStyle;rounded=0;orthogonalLoop=1;jettySize=auto;html=1;entryX=0;entryY=0.5;entryDx=0;entryDy=0;" parent="1" source="Kuadu71gK96YD9XO7ef2-6" target="Kuadu71gK96YD9XO7ef2-13" edge="1">
          <mxGeometry relative="1" as="geometry" />
        </mxCell>
        <mxCell id="Kuadu71gK96YD9XO7ef2-20" style="edgeStyle=orthogonalEdgeStyle;rounded=0;orthogonalLoop=1;jettySize=auto;html=1;entryX=0;entryY=0.25;entryDx=0;entryDy=0;" parent="1" source="Kuadu71gK96YD9XO7ef2-6" target="Kuadu71gK96YD9XO7ef2-14" edge="1">
          <mxGeometry relative="1" as="geometry" />
        </mxCell>
        <mxCell id="Kuadu71gK96YD9XO7ef2-21" style="edgeStyle=orthogonalEdgeStyle;rounded=0;orthogonalLoop=1;jettySize=auto;html=1;entryX=0;entryY=0.5;entryDx=0;entryDy=0;" parent="1" source="Kuadu71gK96YD9XO7ef2-6" target="Kuadu71gK96YD9XO7ef2-15" edge="1">
          <mxGeometry relative="1" as="geometry" />
        </mxCell>
        <mxCell id="Kuadu71gK96YD9XO7ef2-6" value="&lt;font style=&quot;font-size: 14px;&quot;&gt;&lt;b&gt;CRM&lt;/b&gt;&lt;/font&gt;" style="image;aspect=fixed;html=1;points=[];align=center;fontSize=12;image=img/lib/azure2/general/Folder_Blank.svg;" parent="1" vertex="1">
          <mxGeometry x="-160" y="253.88" width="89" height="72.23" as="geometry" />
        </mxCell>
        <mxCell id="Kuadu71gK96YD9XO7ef2-22" style="edgeStyle=orthogonalEdgeStyle;rounded=0;orthogonalLoop=1;jettySize=auto;html=1;" parent="1" source="Kuadu71gK96YD9XO7ef2-8" target="Kuadu71gK96YD9XO7ef2-16" edge="1">
          <mxGeometry relative="1" as="geometry" />
        </mxCell>
        <mxCell id="Kuadu71gK96YD9XO7ef2-23" style="edgeStyle=orthogonalEdgeStyle;rounded=0;orthogonalLoop=1;jettySize=auto;html=1;entryX=0;entryY=0.5;entryDx=0;entryDy=0;" parent="1" source="Kuadu71gK96YD9XO7ef2-8" target="Kuadu71gK96YD9XO7ef2-17" edge="1">
          <mxGeometry relative="1" as="geometry" />
        </mxCell>
        <mxCell id="Kuadu71gK96YD9XO7ef2-24" style="edgeStyle=orthogonalEdgeStyle;rounded=0;orthogonalLoop=1;jettySize=auto;html=1;entryX=0;entryY=0.5;entryDx=0;entryDy=0;" parent="1" source="Kuadu71gK96YD9XO7ef2-8" target="Kuadu71gK96YD9XO7ef2-18" edge="1">
          <mxGeometry relative="1" as="geometry" />
        </mxCell>
        <mxCell id="Kuadu71gK96YD9XO7ef2-8" value="&lt;font style=&quot;font-size: 14px;&quot;&gt;&lt;b&gt;ERP&lt;/b&gt;&lt;/font&gt;" style="image;aspect=fixed;html=1;points=[];align=center;fontSize=12;image=img/lib/azure2/general/Folder_Blank.svg;" parent="1" vertex="1">
          <mxGeometry x="-157.75" y="407.71000000000004" width="84.5" height="68.58" as="geometry" />
        </mxCell>
        <mxCell id="Kuadu71gK96YD9XO7ef2-11" value="" style="rounded=1;whiteSpace=wrap;html=1;fillColor=none;strokeColor=#d79b00;" parent="1" vertex="1">
          <mxGeometry x="70" y="208" width="190" height="340" as="geometry" />
        </mxCell>
        <mxCell id="Kuadu71gK96YD9XO7ef2-12" value="&lt;font style=&quot;font-size: 14px;&quot;&gt;&lt;b&gt;Bronze Layer&lt;/b&gt;&lt;/font&gt;" style="rounded=0;whiteSpace=wrap;html=1;fillColor=#ffe6cc;strokeColor=#d79b00;" parent="1" vertex="1">
          <mxGeometry x="87.5" y="168" width="155" height="40" as="geometry" />
        </mxCell>
        <mxCell id="FIolrDiIAn4A18CEiGO1-9" style="edgeStyle=orthogonalEdgeStyle;rounded=0;orthogonalLoop=1;jettySize=auto;html=1;entryX=0;entryY=0.5;entryDx=0;entryDy=0;" parent="1" source="Kuadu71gK96YD9XO7ef2-13" target="FIolrDiIAn4A18CEiGO1-3" edge="1">
          <mxGeometry relative="1" as="geometry" />
        </mxCell>
        <mxCell id="Kuadu71gK96YD9XO7ef2-13" value="&lt;font style=&quot;font-size: 13px;&quot;&gt;crm_sales_details&lt;/font&gt;" style="rounded=0;whiteSpace=wrap;html=1;fillColor=#ffe6cc;strokeColor=#d79b00;" parent="1" vertex="1">
          <mxGeometry x="95" y="240" width="140" height="30" as="geometry" />
        </mxCell>
        <mxCell id="FIolrDiIAn4A18CEiGO1-10" style="edgeStyle=orthogonalEdgeStyle;rounded=0;orthogonalLoop=1;jettySize=auto;html=1;entryX=0;entryY=0.5;entryDx=0;entryDy=0;" parent="1" source="Kuadu71gK96YD9XO7ef2-14" target="FIolrDiIAn4A18CEiGO1-4" edge="1">
          <mxGeometry relative="1" as="geometry" />
        </mxCell>
        <mxCell id="Kuadu71gK96YD9XO7ef2-14" value="&lt;font style=&quot;font-size: 13px;&quot;&gt;crm_cust_info&lt;/font&gt;" style="rounded=0;whiteSpace=wrap;html=1;fillColor=#ffe6cc;strokeColor=#d79b00;" parent="1" vertex="1">
          <mxGeometry x="95" y="280" width="140" height="30" as="geometry" />
        </mxCell>
        <mxCell id="FIolrDiIAn4A18CEiGO1-11" style="edgeStyle=orthogonalEdgeStyle;rounded=0;orthogonalLoop=1;jettySize=auto;html=1;entryX=0;entryY=0.5;entryDx=0;entryDy=0;" parent="1" source="Kuadu71gK96YD9XO7ef2-15" target="FIolrDiIAn4A18CEiGO1-5" edge="1">
          <mxGeometry relative="1" as="geometry" />
        </mxCell>
        <mxCell id="Kuadu71gK96YD9XO7ef2-15" value="&lt;font style=&quot;font-size: 13px;&quot;&gt;crm_prd_info&lt;/font&gt;" style="rounded=0;whiteSpace=wrap;html=1;fillColor=#ffe6cc;strokeColor=#d79b00;" parent="1" vertex="1">
          <mxGeometry x="95" y="316" width="140" height="30" as="geometry" />
        </mxCell>
        <mxCell id="FIolrDiIAn4A18CEiGO1-12" style="edgeStyle=orthogonalEdgeStyle;rounded=0;orthogonalLoop=1;jettySize=auto;html=1;entryX=0;entryY=0.5;entryDx=0;entryDy=0;" parent="1" source="Kuadu71gK96YD9XO7ef2-16" target="FIolrDiIAn4A18CEiGO1-6" edge="1">
          <mxGeometry relative="1" as="geometry" />
        </mxCell>
        <mxCell id="Kuadu71gK96YD9XO7ef2-16" value="&lt;font style=&quot;font-size: 13px;&quot;&gt;erp_cust_az12&lt;/font&gt;" style="rounded=0;whiteSpace=wrap;html=1;fillColor=#ffe6cc;strokeColor=#d79b00;" parent="1" vertex="1">
          <mxGeometry x="95" y="384" width="140" height="30" as="geometry" />
        </mxCell>
        <mxCell id="FIolrDiIAn4A18CEiGO1-13" style="edgeStyle=orthogonalEdgeStyle;rounded=0;orthogonalLoop=1;jettySize=auto;html=1;entryX=0;entryY=0.5;entryDx=0;entryDy=0;" parent="1" source="Kuadu71gK96YD9XO7ef2-17" target="FIolrDiIAn4A18CEiGO1-7" edge="1">
          <mxGeometry relative="1" as="geometry" />
        </mxCell>
        <mxCell id="Kuadu71gK96YD9XO7ef2-17" value="&lt;font style=&quot;font-size: 13px;&quot;&gt;erp_loc_a101&lt;/font&gt;" style="rounded=0;whiteSpace=wrap;html=1;fillColor=#ffe6cc;strokeColor=#d79b00;" parent="1" vertex="1">
          <mxGeometry x="95" y="427" width="140" height="30" as="geometry" />
        </mxCell>
        <mxCell id="FIolrDiIAn4A18CEiGO1-14" style="edgeStyle=orthogonalEdgeStyle;rounded=0;orthogonalLoop=1;jettySize=auto;html=1;" parent="1" source="Kuadu71gK96YD9XO7ef2-18" target="FIolrDiIAn4A18CEiGO1-8" edge="1">
          <mxGeometry relative="1" as="geometry" />
        </mxCell>
        <mxCell id="Kuadu71gK96YD9XO7ef2-18" value="&lt;font style=&quot;font-size: 13px;&quot;&gt;erp_px_cat_g1v2&lt;/font&gt;" style="rounded=0;whiteSpace=wrap;html=1;fillColor=#ffe6cc;strokeColor=#d79b00;" parent="1" vertex="1">
          <mxGeometry x="95" y="470" width="140" height="30" as="geometry" />
        </mxCell>
        <mxCell id="FIolrDiIAn4A18CEiGO1-1" value="" style="rounded=1;whiteSpace=wrap;html=1;fillColor=none;strokeColor=#666666;fontColor=#333333;" parent="1" vertex="1">
          <mxGeometry x="350" y="208" width="190" height="340" as="geometry" />
        </mxCell>
        <mxCell id="FIolrDiIAn4A18CEiGO1-2" value="&lt;font style=&quot;font-size: 14px;&quot;&gt;&lt;b&gt;Silver Layer&lt;/b&gt;&lt;/font&gt;" style="rounded=0;whiteSpace=wrap;html=1;fillColor=#f5f5f5;strokeColor=#666666;fontColor=#333333;" parent="1" vertex="1">
          <mxGeometry x="367.5" y="168" width="155" height="40" as="geometry" />
        </mxCell>
        <mxCell id="ArzjCbTXKJDHtFD8Y0Ga-11" style="edgeStyle=orthogonalEdgeStyle;rounded=0;orthogonalLoop=1;jettySize=auto;html=1;entryX=0;entryY=0.5;entryDx=0;entryDy=0;" parent="1" source="FIolrDiIAn4A18CEiGO1-3" target="ArzjCbTXKJDHtFD8Y0Ga-5" edge="1">
          <mxGeometry relative="1" as="geometry">
            <mxPoint x="590" y="350" as="targetPoint" />
            <Array as="points" />
          </mxGeometry>
        </mxCell>
        <mxCell id="FIolrDiIAn4A18CEiGO1-3" value="&lt;font style=&quot;font-size: 13px;&quot;&gt;crm_sales_details&lt;/font&gt;" style="rounded=0;whiteSpace=wrap;html=1;fillColor=#f5f5f5;strokeColor=#666666;fontColor=#333333;" parent="1" vertex="1">
          <mxGeometry x="375" y="240" width="140" height="30" as="geometry" />
        </mxCell>
        <mxCell id="FIolrDiIAn4A18CEiGO1-4" value="&lt;font style=&quot;font-size: 13px;&quot;&gt;crm_cust_info&lt;/font&gt;" style="rounded=0;whiteSpace=wrap;html=1;fillColor=#f5f5f5;strokeColor=#666666;fontColor=#333333;" parent="1" vertex="1">
          <mxGeometry x="375" y="280" width="140" height="30" as="geometry" />
        </mxCell>
        <mxCell id="FIolrDiIAn4A18CEiGO1-5" value="&lt;font style=&quot;font-size: 13px;&quot;&gt;crm_prd_info&lt;/font&gt;" style="rounded=0;whiteSpace=wrap;html=1;fillColor=#f5f5f5;strokeColor=#666666;fontColor=#333333;" parent="1" vertex="1">
          <mxGeometry x="375" y="316" width="140" height="30" as="geometry" />
        </mxCell>
        <mxCell id="FIolrDiIAn4A18CEiGO1-6" value="&lt;font style=&quot;font-size: 13px;&quot;&gt;erp_cust_az12&lt;/font&gt;" style="rounded=0;whiteSpace=wrap;html=1;fillColor=#f5f5f5;strokeColor=#666666;fontColor=#333333;" parent="1" vertex="1">
          <mxGeometry x="375" y="384" width="140" height="30" as="geometry" />
        </mxCell>
        <mxCell id="FIolrDiIAn4A18CEiGO1-7" value="&lt;font style=&quot;font-size: 13px;&quot;&gt;erp_loc_a101&lt;/font&gt;" style="rounded=0;whiteSpace=wrap;html=1;fillColor=#f5f5f5;strokeColor=#666666;fontColor=#333333;" parent="1" vertex="1">
          <mxGeometry x="375" y="427" width="140" height="30" as="geometry" />
        </mxCell>
        <mxCell id="FIolrDiIAn4A18CEiGO1-8" value="&lt;font style=&quot;font-size: 13px;&quot;&gt;erp_px_cat_g1v2&lt;/font&gt;" style="rounded=0;whiteSpace=wrap;html=1;fillColor=#f5f5f5;strokeColor=#666666;fontColor=#333333;" parent="1" vertex="1">
          <mxGeometry x="375" y="470" width="140" height="30" as="geometry" />
        </mxCell>
        <mxCell id="ArzjCbTXKJDHtFD8Y0Ga-1" value="&lt;font style=&quot;font-size: 14px;&quot;&gt;&lt;b&gt;Gold Layer&lt;/b&gt;&lt;/font&gt;" style="rounded=0;whiteSpace=wrap;html=1;fillColor=#fff2cc;strokeColor=#d6b656;" parent="1" vertex="1">
          <mxGeometry x="635" y="168" width="155" height="40" as="geometry" />
        </mxCell>
        <mxCell id="ArzjCbTXKJDHtFD8Y0Ga-2" value="&lt;font style=&quot;font-size: 13px;&quot;&gt;dim_products&lt;/font&gt;" style="rounded=0;whiteSpace=wrap;html=1;fillColor=#fff2cc;strokeColor=#d6b656;" parent="1" vertex="1">
          <mxGeometry x="642.5" y="420" width="140" height="30" as="geometry" />
        </mxCell>
        <mxCell id="ArzjCbTXKJDHtFD8Y0Ga-4" value="&lt;font style=&quot;font-size: 13px;&quot;&gt;dim_customers&lt;/font&gt;" style="rounded=0;whiteSpace=wrap;html=1;fillColor=#fff2cc;strokeColor=#d6b656;" parent="1" vertex="1">
          <mxGeometry x="642.5" y="326.11" width="140" height="30" as="geometry" />
        </mxCell>
        <mxCell id="ArzjCbTXKJDHtFD8Y0Ga-5" value="&lt;font style=&quot;font-size: 13px;&quot;&gt;fact_sale&lt;/font&gt;" style="rounded=0;whiteSpace=wrap;html=1;fillColor=#fff2cc;strokeColor=#d6b656;" parent="1" vertex="1">
          <mxGeometry x="642.5" y="240" width="140" height="30" as="geometry" />
        </mxCell>
        <mxCell id="ArzjCbTXKJDHtFD8Y0Ga-8" value="" style="rounded=1;whiteSpace=wrap;html=1;fillColor=none;strokeColor=#d6b656;" parent="1" vertex="1">
          <mxGeometry x="617.5" y="208" width="190" height="340" as="geometry" />
        </mxCell>
        <mxCell id="ArzjCbTXKJDHtFD8Y0Ga-9" value="" style="image;aspect=fixed;html=1;points=[];align=center;fontSize=12;image=img/lib/azure2/general/File.svg;" parent="1" vertex="1">
          <mxGeometry x="-103.46000000000001" y="286.11" width="32.46" height="40" as="geometry" />
        </mxCell>
        <mxCell id="ArzjCbTXKJDHtFD8Y0Ga-10" value="" style="image;aspect=fixed;html=1;points=[];align=center;fontSize=12;image=img/lib/azure2/general/File.svg;" parent="1" vertex="1">
          <mxGeometry x="-105.71" y="436.29" width="32.46" height="40" as="geometry" />
        </mxCell>
        <mxCell id="ArzjCbTXKJDHtFD8Y0Ga-15" style="edgeStyle=orthogonalEdgeStyle;rounded=0;orthogonalLoop=1;jettySize=auto;html=1;exitX=0.5;exitY=1;exitDx=0;exitDy=0;" parent="1" source="ArzjCbTXKJDHtFD8Y0Ga-4" target="ArzjCbTXKJDHtFD8Y0Ga-4" edge="1">
          <mxGeometry relative="1" as="geometry" />
        </mxCell>
        <mxCell id="ArzjCbTXKJDHtFD8Y0Ga-22" value="" style="endArrow=classic;html=1;rounded=0;entryX=0;entryY=0.5;entryDx=0;entryDy=0;exitX=1;exitY=0.5;exitDx=0;exitDy=0;" parent="1" source="FIolrDiIAn4A18CEiGO1-4" target="ArzjCbTXKJDHtFD8Y0Ga-4" edge="1">
          <mxGeometry width="50" height="50" relative="1" as="geometry">
            <mxPoint x="585" y="403" as="sourcePoint" />
            <mxPoint x="635" y="353" as="targetPoint" />
          </mxGeometry>
        </mxCell>
        <mxCell id="ArzjCbTXKJDHtFD8Y0Ga-23" value="" style="endArrow=classic;html=1;rounded=0;entryX=0;entryY=0.75;entryDx=0;entryDy=0;exitX=1;exitY=0.5;exitDx=0;exitDy=0;" parent="1" source="FIolrDiIAn4A18CEiGO1-6" target="ArzjCbTXKJDHtFD8Y0Ga-4" edge="1">
          <mxGeometry width="50" height="50" relative="1" as="geometry">
            <mxPoint x="630" y="500" as="sourcePoint" />
            <mxPoint x="758" y="560" as="targetPoint" />
          </mxGeometry>
        </mxCell>
        <mxCell id="ArzjCbTXKJDHtFD8Y0Ga-24" value="" style="endArrow=classic;html=1;rounded=0;entryX=0;entryY=0.75;entryDx=0;entryDy=0;exitX=1;exitY=0.5;exitDx=0;exitDy=0;" parent="1" source="FIolrDiIAn4A18CEiGO1-7" target="ArzjCbTXKJDHtFD8Y0Ga-4" edge="1">
          <mxGeometry width="50" height="50" relative="1" as="geometry">
            <mxPoint x="630" y="520" as="sourcePoint" />
            <mxPoint x="758" y="580" as="targetPoint" />
          </mxGeometry>
        </mxCell>
        <mxCell id="ArzjCbTXKJDHtFD8Y0Ga-25" value="" style="endArrow=classic;html=1;rounded=0;entryX=0;entryY=0.5;entryDx=0;entryDy=0;exitX=1;exitY=0.5;exitDx=0;exitDy=0;" parent="1" source="FIolrDiIAn4A18CEiGO1-5" target="ArzjCbTXKJDHtFD8Y0Ga-2" edge="1">
          <mxGeometry width="50" height="50" relative="1" as="geometry">
            <mxPoint x="572" y="412" as="sourcePoint" />
            <mxPoint x="700" y="472" as="targetPoint" />
          </mxGeometry>
        </mxCell>
        <mxCell id="ArzjCbTXKJDHtFD8Y0Ga-26" value="" style="endArrow=classic;html=1;rounded=0;entryX=0;entryY=0.5;entryDx=0;entryDy=0;exitX=1;exitY=0.5;exitDx=0;exitDy=0;" parent="1" source="FIolrDiIAn4A18CEiGO1-8" target="ArzjCbTXKJDHtFD8Y0Ga-2" edge="1">
          <mxGeometry width="50" height="50" relative="1" as="geometry">
            <mxPoint x="670" y="550" as="sourcePoint" />
            <mxPoint x="798" y="610" as="targetPoint" />
          </mxGeometry>
        </mxCell>
        <mxCell id="T3i_HD83xXoXU8FeeM5n-1" value="&lt;font style=&quot;font-size: 26px;&quot;&gt;&lt;b&gt;Data Flow&lt;/b&gt;&lt;/font&gt;" style="rounded=1;whiteSpace=wrap;html=1;" vertex="1" parent="1">
          <mxGeometry x="87.5" y="60" width="457.5" height="60" as="geometry" />
        </mxCell>
      </root>
    </mxGraphModel>
  </diagram>
</mxfile>
